<svg width="75" height="67" viewBox="0 0 75 67" fill="none" xmlns="http://www.w3.org/2000/svg">
<path d="M4.5 54.5V31.25C4.5 29.1946 5.28429 27.2233 6.68035 25.7699C8.0764 24.3165 9.96985 23.5 11.9442 23.5C13.9185 23.5 15.8119 24.3165 17.208 25.7699C18.604 27.2233 19.3883 29.1946 19.3883 31.25V54.5M4.5 42.875H19.3883M30.5546 23.5V46.75M30.5546 46.75C30.5546 48.8054 31.3389 50.7767 32.7349 52.2301C34.131 53.6835 36.0244 54.5 37.9988 54.5C39.9731 54.5 41.8665 53.6835 43.2626 52.2301C44.6586 50.7767 45.4429 48.8054 45.4429 46.75V42.875C45.4429 40.8196 44.6586 38.8483 43.2626 37.3949C41.8665 35.9415 39.9731 35.125 37.9988 35.125C36.0244 35.125 34.131 35.9415 32.7349 37.3949C31.3389 38.8483 30.5546 40.8196 30.5546 42.875V46.75ZM70.5 39C69.6806 37.5226 68.4159 36.368 66.9019 35.7152C65.388 35.0624 63.7094 34.9479 62.1266 35.3894C60.5438 35.831 59.1452 36.8039 58.1476 38.1573C57.15 39.5107 56.6093 41.169 56.6092 42.875V46.75C56.6095 48.4519 57.1479 50.1064 58.1414 51.458C59.1348 52.8096 60.5279 53.7832 62.1058 54.2285C63.6836 54.6737 65.3583 54.5659 66.8714 53.9217C68.3845 53.2774 69.6518 52.1325 70.4777 50.6638" stroke="#036B5F" stroke-width="4" stroke-linecap="round" stroke-linejoin="round"/>
</svg>
