<svg width="66" height="66" viewBox="0 0 66 66" fill="none" xmlns="http://www.w3.org/2000/svg">
<path fill-rule="evenodd" clip-rule="evenodd" d="M59.8125 8.25H37.125L35.6812 8.86875L33 11.5087L30.3188 8.86875L28.875 8.25H6.1875L4.125 10.3125V51.5625L6.1875 53.625H28.0087L31.5562 57.1313H34.4438L37.9912 53.625H59.8125L61.875 51.5625V10.3125L59.8125 8.25ZM30.9375 50.82L30.195 50.1187L28.875 49.5H8.25V12.375H28.0087L31.0613 15.4275L30.9375 50.82ZM57.75 49.5H37.125L35.6812 50.1187L35.1038 50.655V15.2625L37.9912 12.375H57.75V49.5ZM24.75 20.625H12.375V24.75H24.75V20.625ZM24.75 37.125H12.375V41.25H24.75V37.125ZM12.375 28.875H24.75V33H12.375V28.875ZM53.625 20.625H41.25V24.75H53.625V20.625ZM41.25 28.875H53.625V33H41.25V28.875ZM41.25 37.125H53.625V41.25H41.25V37.125Z" fill="#FF783E"/>
</svg>
