<svg width="67" height="66" viewBox="0 0 67 66" fill="none" xmlns="http://www.w3.org/2000/svg">
<g clip-path="url(#clip0_227_16)">
<path d="M65.1465 19.425L52.2428 7.44498C51.8138 7.04651 51.3044 6.73042 50.7439 6.51476C50.1833 6.29911 49.5825 6.18811 48.9757 6.18811C48.3689 6.18811 47.7681 6.29911 47.2075 6.51476C46.6469 6.73042 46.1376 7.04651 45.7086 7.44498L10.1042 40.5079C9.67335 40.9048 9.33176 41.3773 9.09928 41.8979C8.8668 42.4185 8.74808 42.9768 8.75002 43.5404V55.5231C8.75002 56.6609 9.23675 57.752 10.1031 58.5566C10.9695 59.3611 12.1446 59.8131 13.3698 59.8131H61.878C62.4906 59.8131 63.0781 59.5871 63.5113 59.1849C63.9445 58.7826 64.1879 58.237 64.1879 57.6681C64.1879 57.0992 63.9445 56.5536 63.5113 56.1513C63.0781 55.7491 62.4906 55.5231 61.878 55.5231H32.8078L65.1465 25.4927C65.5756 25.0943 65.916 24.6213 66.1482 24.1008C66.3805 23.5802 66.5 23.0223 66.5 22.4588C66.5 21.8954 66.3805 21.3374 66.1482 20.8169C65.916 20.2963 65.5756 19.8233 65.1465 19.425ZM38.7789 19.9451L43.5979 24.4202L19.1446 47.128L14.3256 42.6529L38.7789 19.9451ZM13.3698 55.5231V47.8305L21.6538 55.5231H13.3698ZM27.2293 54.6356L22.4131 50.1605L46.8636 27.4527L51.6826 31.9278L27.2293 54.6356ZM54.9483 28.8952L42.0474 16.9126L48.9771 10.4775L61.878 22.4602L54.9483 28.8952Z" fill="#FEA200"/>
</g>
<defs>
<clipPath id="clip0_227_16">
<rect width="66" height="66" fill="white" transform="translate(0.5)"/>
</clipPath>
</defs>
</svg>
