<svg width="28" height="29" viewBox="0 0 28 29" fill="none" xmlns="http://www.w3.org/2000/svg">
<path fill-rule="evenodd" clip-rule="evenodd" d="M14.0002 5.16665C12.3548 5.16628 10.7385 5.60089 9.31524 6.42644C7.89194 7.25199 6.71218 8.43912 5.89552 9.86754C5.07886 11.296 4.65433 12.9149 4.66495 14.5602C4.67557 16.2056 5.12097 17.8189 5.95601 19.2366L6.61984 20.0743L5.80667 22.8265L8.51334 22.0705L8.95551 22.354C10.1758 23.1374 11.5618 23.6257 13.0036 23.7802C14.4455 23.9347 15.9035 23.7511 17.262 23.2439C18.6206 22.7368 19.8422 21.9201 20.8302 20.8586C21.8181 19.797 22.5451 18.5199 22.9535 17.1285C23.3618 15.7371 23.4404 14.2697 23.1829 12.8426C22.9254 11.4156 22.3389 10.0682 21.47 8.90723C20.6011 7.7463 19.4736 6.80382 18.177 6.15453C16.8803 5.50523 15.4503 5.167 14.0002 5.16665ZM2.33351 14.5C2.33351 8.05648 7.55667 2.83331 14.0002 2.83331C20.4437 2.83331 25.6668 8.05648 25.6668 14.5C25.6668 20.9435 20.4437 26.1666 14.0002 26.1666C11.9449 26.1696 9.92553 25.6273 8.14817 24.5951L2.37551 26.2075L4.03917 20.5736L4.03217 20.5655L3.99367 20.5013C2.90463 18.6891 2.33063 16.6142 2.33351 14.5Z" fill="white"/>
<path d="M19.5245 16.2406C19.4802 16.2196 17.778 15.382 17.4758 15.2723C17.3497 15.2202 17.2155 15.1906 17.0792 15.1848C16.8505 15.1848 16.6568 15.2991 16.5075 15.5243C16.3372 15.7775 15.8227 16.3783 15.664 16.558C15.643 16.5813 15.615 16.6105 15.5975 16.6105C15.5823 16.6105 15.3187 16.502 15.2393 16.467C13.4147 15.6736 12.0298 13.7685 11.8397 13.4465C11.8128 13.3998 11.8117 13.38 11.8117 13.38C11.8175 13.3555 11.8793 13.2936 11.9108 13.2621C12.0042 13.17 12.1045 13.0498 12.2013 12.932L12.3378 12.7686C12.479 12.6053 12.542 12.477 12.6143 12.3311L12.6528 12.2541C12.7106 12.1373 12.7386 12.0081 12.7346 11.8779C12.7305 11.7477 12.6944 11.6204 12.6295 11.5075C12.5898 11.427 11.8712 9.69331 11.7953 9.51131C11.611 9.07148 11.3683 8.86731 11.0312 8.86731C10.9997 8.86731 11.0312 8.86731 10.9005 8.87314C10.7407 8.87898 9.87034 8.99448 9.48534 9.23598C9.07701 9.49264 8.38867 10.314 8.38867 11.756C8.38867 13.0533 9.21117 14.2783 9.56467 14.7438L9.61251 14.8138C10.967 16.7913 12.6552 18.2566 14.3655 18.9403C16.0128 19.5983 16.7933 19.6753 17.2367 19.6753C17.4233 19.6753 17.5727 19.6601 17.7033 19.6473L17.7873 19.6391C18.3567 19.589 19.6073 18.9403 19.892 18.1505C20.116 17.5275 20.1755 16.8473 20.0262 16.6C19.9235 16.432 19.7473 16.348 19.5245 16.2406Z" fill="white"/>
</svg>
